<svg xmlns="http://www.w3.org/2000/svg" viewBox="0 0 64 64">
  <defs>
    <linearGradient id="bg" x1="0" y1="0" x2="1" y2="1">
      <stop offset="0%" stop-color="#ffe3a5"/>
      <stop offset="100%" stop-color="#f3a14a"/>
    </linearGradient>
    <linearGradient id="dino" x1="0" y1="0" x2="1" y2="1">
      <stop offset="0%" stop-color="#2d5c4c"/>
      <stop offset="100%" stop-color="#173127"/>
    </linearGradient>
  </defs>
  <rect width="64" height="64" rx="14" fill="url(#bg)"/>
  <path d="M17 42h30v6H17z" fill="#744624" opacity=".55"/>
  <path d="M21 23h16v15H21zM32 17h10v8H32zM16 26h8v6h-8zM24 38h5v9h-5zM35 38h5v9h-5z" fill="url(#dino)"/>
  <path d="M21 30h16v3H21z" fill="#d3a643"/>
  <rect x="36" y="20" width="2.5" height="2.5" rx="1" fill="#fff7df"/>
  <path d="M48 23h4v19h-4zM45 31h3v7h-3zM52 28h3v8h-3z" fill="#2e8a57"/>
</svg>
